<?xml version="1.0" encoding="UTF-8"?>
<svg id="Layer_2" data-name="Layer 2" xmlns="http://www.w3.org/2000/svg" xmlns:xlink="http://www.w3.org/1999/xlink" viewBox="0 0 24.63 25.58">
  <defs>
    <linearGradient id="linear-gradient" x1="12.32" y1="25.58" x2="12.32" y2="0" gradientUnits="userSpaceOnUse">
      <stop offset="0" stop-color="#009954"/>
      <stop offset=".48" stop-color="#4ab72a"/>
      <stop offset="1" stop-color="#96d600"/>
    </linearGradient>
  </defs>
  <g id="Layer_2-2" data-name="Layer 2">
    <path d="m24.45,8.37h0c-.37-.27-1.11-.64-2.52-.98-.42-.1-.9-.19-1.46-.28-.69-.11-1.5-.21-2.43-.29h-.13c-.19-.45-.38-.9-.59-1.38-.11-.26-.22-.51-.33-.79,0-.04-.03-.06-.04-.1-.41-1-.84-2.05-1.58-2.97-.82-1.02-1.91-1.58-3.05-1.58s-2.23.57-3.05,1.58c-.74.92-1.18,1.95-1.58,2.96-.02.04-.03.06-.04.1-.11.27-.22.53-.33.79-.21.48-.4.94-.59,1.38h-.13c-.93.08-1.74.18-2.44.29-.55.09-1.03.18-1.45.28-1.42.33-2.15.7-2.52.98H.19c-.14.1-.21.26-.18.43l.12.91c.18,1.36.38,2.96.71,4.61.25,1.24.57,2.52,1,3.73.17.48.37.95.58,1.41,1.44,2.9,4.13,5.09,7.37,5.84.81.19,1.66.29,2.53.29s1.71-.1,2.52-.29c3.3-.77,6.03-3.01,7.45-6,.16-.37.32-.74.46-1.12,1-2.7,1.39-5.68,1.71-8.05l.17-1.35c.02-.16-.05-.33-.18-.43v.03Zm-12.14-1.77c-1.15,0-2.19.02-3.13.05h0c.05-.12.1-.24.16-.37.12-.28.24-.57.35-.84.26-.63.5-1.24.81-1.79.15-.26.3-.49.48-.71.23-.28.71-.77,1.34-.77s1.1.48,1.34.77c.18.22.34.47.48.71.31.55.56,1.15.81,1.79.11.27.23.56.35.84.05.12.1.25.16.37-.95-.04-1.99-.05-3.13-.05,0,0-.02,0-.02,0Z" fill="url(#linear-gradient)"/>
  </g>
</svg>