<?xml version="1.0" encoding="UTF-8"?>
<svg id="Layer_2" data-name="Layer 2" xmlns="http://www.w3.org/2000/svg" viewBox="0 0 739 739.68">
  <g id="Layer_1-2" data-name="Layer 1">
    <g>
      <path d="m259.92,69.13c3.53,8.36,5.31,17.1,5.36,26.23-.44,5.22-3.19,8.51-8.24,9.89-4.19.46-8.4.73-12.63.82,1.65,5.68,2.84,11.45,3.57,17.3.09,2.76,0,5.51-.27,8.24-1.26,4.41-4.19,6.97-8.79,7.69-4.19.46-8.4.73-12.63.82-.58-.31-1.09-.73-1.51-1.24,2.17-2.18,3.4-4.79,3.71-7.83-1.13-6.97-2.32-13.92-3.57-20.87.46-2.57,2.02-4.04,4.67-4.39,4.67-.98,9.34-1.9,14.01-2.75,1.54-2.25,2.18-4.72,1.92-7.42-.89-5.42-1.9-10.82-3.02-16.2-.31-1.56-.31-3.12,0-4.67.91-1.44,2.19-2.36,3.85-2.75,4.56-.87,9.09-1.83,13.59-2.88h0Z" fill="#ffffff23"/>
      <path d="m317.05,138.34c3.62,8.83,5.31,18.02,5.08,27.6-.8,4.56-3.46,7.4-7.96,8.51-4.72.68-9.48.96-14.28.82-.52-.11-.75-.43-.69-.96,2.06-2.43,3.2-5.22,3.43-8.38-.68-4.98-1.6-9.93-2.75-14.83-.37-2.28-.55-4.57-.55-6.87.64-1.01,1.46-1.83,2.47-2.47,5.07-1.26,10.15-2.41,15.24-3.43Z" fill="#ffffff23"/>
      <path d="m300.16,182.69c-1.74-2.94-3.89-5.55-6.45-7.83-5.43-2.7-10.97-2.75-16.62-.14-4.07,2.15-8.28,3.98-12.63,5.49-9.02,3.22-14.06,9.53-15.11,18.95.16,8.2,3.55,14.79,10.16,19.77,5.28,3.63,10.37,7.52,15.24,11.67,2.14,2.29,4.1,4.72,5.9,7.28,1.11,1.41,1.48,2.96,1.1,4.67-2.44,5.2-5.73,9.78-9.89,13.73-2.19.09-4.38,0-6.59-.27-6.28-1.68-11.82-4.75-16.62-9.2-8.21-8.05-10.73-17.53-7.55-28.43,5.2-6.65,4.47-12.6-2.2-17.85-6.62-4.91-13.76-8.84-21.42-11.81,3.66-12.07,5.49-24.43,5.49-37.08-.09-2.96-.73-5.8-1.92-8.51-5.08-10.15-12.77-12.98-23.07-8.51-4.57,2.62-9.33,4.82-14.28,6.59-8.24,4-13.09,10.5-14.56,19.5-.41,12.1,4.08,22.08,13.46,29.94,3.86,3.3,7.89,6.31,12.08,9.06-1.72,5.31-4.61,9.84-8.65,13.59-2.42-5.67-5.9-10.61-10.44-14.83-9.41-8.83-19.34-17.02-29.8-24.58-12.67-8.95-25.4-17.83-38.18-26.64-7.18-5.05-14.23-10.27-21.15-15.65-8.76-6.77-16.72-14.37-23.89-22.8-9.15-13-15.65-27.19-19.5-42.57-5.03-23.17-1.09-44.77,11.81-64.82.66-1.13.38-1.59-.82-1.37-16.68,15.05-25.84,33.73-27.46,56.03-1.48,29.69,8.08,55.37,28.7,77.04,11.88,11.03,24.56,21.06,38.04,30.07,13.95,9.29,27.87,18.62,41.75,28.01,4.94,3.43,9.7,7.09,14.28,10.99,8.71,7.13,15.44,15.78,20.19,25.95.7.51,1.48.74,2.33.69,8.12-3.51,16.17-7.17,24.17-10.99,1.63-.9,3.18-1.91,4.67-3.02,2.97-2.76,5.86-5.55,8.65-8.38,4.89,1.6,9.33,4.02,13.32,7.28,1.34,1.32,2.16,2.87,2.47,4.67-1.39,2.24-2.49,4.62-3.3,7.14-2.86,14.96,1.63,27.23,13.46,36.8,11.59,8.33,23.49,8.79,35.7,1.37,3.71-.87,7.38-1.97,10.99-3.3,7.25-3.6,12.93-8.91,17.03-15.93,3.94-7.42,6.32-15.3,7.14-23.62,1.53-13.27-.49-26-6.04-38.18Zm-98.6-4.94c-.08.62-.35,1.07-.82,1.37-3.99-4.58-7.65-9.44-10.99-14.56-1.05-2.1-1.78-4.29-2.2-6.59.12-1.82.39-2.88.39-2.88.33-3.08,1.72-5.65,3.87-7.96l.02-.02c1.09-1.17,2.92-1.22,4.17-.22l1.19,1.03s0,0,0,0h0s0,0,0,0c2.61,2.52,4.19,5.58,5.06,9.1.49,6.94.27,13.85-.69,20.74Zm66.74,19.77c-1.33-4.06-.69-7.82,1.92-11.26.86-.52,1.77-.89,2.75-1.1,1.7.69,3.3,1.47,4.81,2.33,2.31,2.11,4,4.62,5.08,7.55,2.01,6.28,3.29,12.69,3.84,19.23-7.39-4.22-13.52-9.8-18.4-16.75Z" fill="#ffffff23"/>
      <path d="m27.85,21.06c.41.32.64.73.69,1.24-14.26,22.17-17.74,45.88-10.44,71.13,4.28,14.32,10.96,27.41,20.05,39.27,11.36,12.08,23.91,22.79,37.63,32.13,14.65,10.25,29.3,20.51,43.94,30.76,13.54,9.39,25.71,20.28,36.53,32.68,2.85,4.06,4.31,8.54,4.39,13.46l-.82,1.65c-4.45,2.27-8.94,4.47-13.46,6.59-1.19.19-2.29,0-3.3-.55-1.52-2.48-2.89-5.05-4.12-7.69-4.31-6.57-9.43-12.43-15.38-17.58-5.24-4.54-10.73-8.75-16.48-12.63-15.8-10.54-31.55-21.16-47.24-31.86-12.5-8.57-24.03-18.27-34.61-29.11C5.99,128.25-2.25,102.53.52,73.38c2.55-20.79,11.65-38.23,27.33-52.32Z" fill="#ffffff23"/>
      <path d="m211.59,222.38c3.24,8.35,4.94,17,5.08,25.95-.67,5.94-3.96,9.42-9.89,10.44-3.75.18-7.51.37-11.26.55,2.89,8.19,4.08,16.62,3.57,25.27-1.21,4.7-4.23,7.36-9.06,7.96-4.3.55-8.6.73-12.91.55-.54-.16-.82-.53-.82-1.1,2.58-2.71,3.68-5.92,3.3-9.61-.92-4.94-1.83-9.89-2.75-14.83-.27-1.84-.37-3.67-.27-5.49.64-1.01,1.46-1.83,2.47-2.47,4.96-1.29,9.95-2.34,14.97-3.16,2.19-1.88,3.15-4.31,2.88-7.28-1.27-6.84-2.37-13.7-3.3-20.6.68-1.77,1.96-2.87,3.85-3.3,4.72-.97,9.44-1.93,14.14-2.88Z" fill="#ffffff23"/>
    </g>
    <g>
      <path d="m676.77,515.64c3.53,8.36,5.31,17.1,5.36,26.23-.44,5.22-3.19,8.51-8.24,9.89-4.19.46-8.4.73-12.63.82,1.65,5.68,2.84,11.45,3.57,17.3.09,2.76,0,5.51-.27,8.24-1.26,4.41-4.19,6.97-8.79,7.69-4.19.46-8.4.73-12.63.82-.58-.31-1.09-.73-1.51-1.24,2.17-2.18,3.4-4.79,3.71-7.83-1.13-6.97-2.32-13.92-3.57-20.87.46-2.57,2.02-4.04,4.67-4.39,4.67-.98,9.34-1.9,14.01-2.75,1.54-2.25,2.18-4.72,1.92-7.42-.89-5.42-1.9-10.82-3.02-16.2-.31-1.56-.31-3.12,0-4.67.91-1.44,2.19-2.36,3.85-2.75,4.56-.87,9.09-1.83,13.59-2.88h0Z" fill="#ffffff23"/>
      <path d="m733.9,584.85c3.62,8.83,5.31,18.02,5.08,27.6-.8,4.56-3.46,7.4-7.96,8.51-4.72.68-9.48.96-14.28.82-.52-.11-.75-.43-.69-.96,2.06-2.43,3.2-5.22,3.43-8.38-.68-4.98-1.6-9.93-2.75-14.83-.37-2.28-.55-4.57-.55-6.87.64-1.01,1.46-1.83,2.47-2.47,5.07-1.26,10.15-2.41,15.24-3.43Z" fill="#ffffff23"/>
      <path d="m717.01,629.2c-1.74-2.94-3.89-5.55-6.45-7.83-5.43-2.7-10.97-2.75-16.62-.14-4.07,2.15-8.28,3.98-12.63,5.49-9.02,3.22-14.06,9.53-15.11,18.95.16,8.2,3.55,14.79,10.16,19.77,5.28,3.63,10.37,7.52,15.24,11.67,2.14,2.29,4.1,4.72,5.9,7.28,1.11,1.41,1.48,2.96,1.1,4.67-2.44,5.2-5.73,9.78-9.89,13.73-2.19.09-4.38,0-6.59-.27-6.28-1.68-11.82-4.75-16.62-9.2-8.21-8.05-10.73-17.53-7.55-28.43,5.2-6.65,4.47-12.6-2.2-17.85-6.62-4.91-13.76-8.84-21.42-11.81,3.66-12.07,5.49-24.43,5.49-37.08-.09-2.96-.73-5.8-1.92-8.51-5.08-10.15-12.77-12.98-23.07-8.51-4.57,2.62-9.33,4.82-14.28,6.59-8.24,4-13.09,10.5-14.56,19.5-.41,12.1,4.08,22.08,13.46,29.94,3.86,3.3,7.89,6.31,12.08,9.06-1.72,5.31-4.61,9.84-8.65,13.59-2.42-5.67-5.9-10.61-10.44-14.83-9.41-8.83-19.34-17.02-29.8-24.58-12.67-8.95-25.4-17.83-38.18-26.64-7.18-5.05-14.23-10.27-21.15-15.65-8.76-6.77-16.72-14.37-23.89-22.8-9.15-13-15.65-27.19-19.5-42.57-5.03-23.17-1.09-44.77,11.81-64.82.66-1.13.38-1.59-.82-1.37-16.68,15.05-25.84,33.73-27.46,56.03-1.48,29.69,8.08,55.37,28.7,77.04,11.88,11.03,24.56,21.06,38.04,30.07,13.95,9.29,27.87,18.62,41.75,28.01,4.94,3.43,9.7,7.09,14.28,10.99,8.71,7.13,15.44,15.78,20.19,25.95.7.51,1.48.74,2.33.69,8.12-3.51,16.17-7.17,24.17-10.99,1.63-.9,3.18-1.91,4.67-3.02,2.97-2.76,5.86-5.55,8.65-8.38,4.89,1.6,9.33,4.02,13.32,7.28,1.34,1.32,2.16,2.87,2.47,4.67-1.39,2.24-2.49,4.62-3.3,7.14-2.86,14.96,1.63,27.23,13.46,36.8,11.59,8.33,23.49,8.79,35.7,1.37,3.71-.87,7.38-1.97,10.99-3.3,7.25-3.6,12.93-8.91,17.03-15.93,3.94-7.42,6.32-15.3,7.14-23.62,1.53-13.27-.49-26-6.04-38.18Zm-98.6-4.94c-.08.62-.35,1.07-.82,1.37-3.99-4.58-7.65-9.44-10.99-14.56-1.05-2.1-1.78-4.29-2.2-6.59.12-1.82.39-2.88.39-2.88.33-3.08,1.72-5.65,3.87-7.96l.02-.02c1.09-1.17,2.92-1.22,4.17-.22l1.19,1.03s0,0,0,0h0s0,0,0,0c2.61,2.52,4.19,5.58,5.06,9.1.49,6.94.27,13.85-.69,20.74Zm66.74,19.77c-1.33-4.06-.69-7.82,1.92-11.26.86-.52,1.77-.89,2.75-1.1,1.7.69,3.3,1.47,4.81,2.33,2.31,2.11,4,4.62,5.08,7.55,2.01,6.28,3.29,12.69,3.85,19.23-7.39-4.22-13.52-9.8-18.4-16.75Z" fill="#ffffff23"/>
      <path d="m444.7,467.57c.41.32.64.73.69,1.24-14.26,22.17-17.74,45.88-10.44,71.13,4.28,14.32,10.96,27.41,20.05,39.27,11.36,12.08,23.91,22.79,37.63,32.13,14.65,10.25,29.3,20.51,43.94,30.76,13.54,9.39,25.71,20.28,36.53,32.68,2.85,4.06,4.31,8.54,4.39,13.46l-.82,1.65c-4.45,2.27-8.94,4.47-13.46,6.59-1.19.19-2.29,0-3.3-.55-1.52-2.48-2.89-5.05-4.12-7.69-4.31-6.57-9.43-12.43-15.38-17.58-5.24-4.54-10.73-8.75-16.48-12.63-15.8-10.54-31.55-21.16-47.24-31.86-12.5-8.57-24.03-18.27-34.61-29.11-19.25-22.31-27.49-48.03-24.72-77.18,2.55-20.79,11.65-38.23,27.33-52.32Z" fill="#ffffff23"/>
      <path d="m628.43,668.89c3.24,8.35,4.94,17,5.08,25.95-.67,5.94-3.96,9.42-9.89,10.44-3.75.18-7.51.37-11.26.55,2.89,8.19,4.08,16.62,3.57,25.27-1.21,4.7-4.23,7.36-9.06,7.96-4.3.55-8.6.73-12.91.55-.54-.16-.82-.53-.82-1.1,2.58-2.71,3.68-5.92,3.3-9.61-.92-4.94-1.83-9.89-2.75-14.83-.27-1.84-.37-3.67-.27-5.49.64-1.01,1.46-1.83,2.47-2.47,4.96-1.29,9.95-2.34,14.97-3.16,2.19-1.88,3.15-4.31,2.88-7.28-1.27-6.84-2.37-13.7-3.3-20.6.68-1.77,1.96-2.87,3.85-3.3,4.72-.97,9.44-1.93,14.14-2.88Z" fill="#ffffff23"/>
    </g>
  </g>
</svg>